<svg width="16" height="22" viewBox="0 0 16 22" fill="none" xmlns="http://www.w3.org/2000/svg">
<path d="M15.3222 11.5418C14.8111 10.8808 14.0399 10.4269 13.0085 10.1802C14.3219 9.51021 14.8991 8.37315 14.7406 6.76879C14.6876 6.18701 14.5268 5.6828 14.2579 5.25542C13.9887 4.82795 13.6255 4.48429 13.1669 4.22431C12.7086 3.96401 12.2102 3.76586 11.6728 3.62925C11.1352 3.49264 10.5181 3.39345 9.82174 3.33181V0H7.78583V3.23924C7.43329 3.23924 6.89564 3.24804 6.17295 3.26568V0H4.13677V3.33181C3.84581 3.34065 3.41838 3.34515 2.85429 3.34515L0.0514221 3.33181V5.50016H1.51889C2.18879 5.50016 2.58103 5.79992 2.6956 6.3992V10.1938C2.78386 10.1938 2.85429 10.1984 2.90723 10.2072H2.6956V15.5219C2.62516 15.9714 2.36958 16.1963 1.92882 16.1963H0.461438L0.0515147 18.6159H2.69583C2.86333 18.6159 3.10557 18.6181 3.42301 18.6221C3.74027 18.6265 3.97816 18.6287 4.13686 18.6287V22.0001H6.17337V18.6684C6.54347 18.6774 7.08111 18.6817 7.78625 18.6817V22.0001H9.82221V18.6287C10.5451 18.5935 11.1863 18.5278 11.7458 18.4305C12.3055 18.3332 12.8411 18.1814 13.3522 17.9741C13.8633 17.7671 14.2907 17.5091 14.6344 17.2006C14.9783 16.8924 15.2623 16.5 15.4875 16.0239C15.7119 15.5479 15.8553 14.997 15.9168 14.371C16.0319 13.1462 15.8334 12.203 15.3222 11.5418ZM6.21255 5.6452C6.27428 5.6452 6.44835 5.64298 6.73481 5.63853C7.02142 5.63399 7.25931 5.62964 7.4488 5.6252C7.63834 5.62084 7.89396 5.63186 8.21581 5.65831C8.53752 5.68475 8.80851 5.72008 9.0288 5.76407C9.24909 5.80807 9.4917 5.88082 9.75589 5.98219C10.0205 6.08347 10.2319 6.20692 10.3904 6.35233C10.5492 6.49774 10.6836 6.68293 10.7936 6.90771C10.9039 7.13245 10.959 7.39025 10.959 7.68107C10.959 7.92789 10.9194 8.15272 10.8402 8.35555C10.7611 8.55824 10.6418 8.72796 10.4833 8.86457C10.3248 9.00123 10.1614 9.12034 9.99392 9.22161C9.82661 9.32289 9.61266 9.40448 9.35273 9.46612C9.09285 9.52785 8.86589 9.57634 8.67209 9.61153C8.47815 9.64682 8.23582 9.67113 7.9449 9.68428C7.65395 9.69743 7.43352 9.70642 7.28376 9.71077C7.13386 9.71512 6.92899 9.71512 6.66887 9.71077C6.40871 9.70642 6.25686 9.7041 6.21269 9.7041V5.64515H6.21255V5.6452ZM11.7724 14.6488C11.6884 14.8517 11.5806 15.0281 11.4485 15.178C11.3161 15.3276 11.142 15.4599 10.9261 15.5744C10.7103 15.6891 10.5008 15.7815 10.2982 15.852C10.0954 15.9228 9.85069 15.9842 9.5645 16.0373C9.27767 16.0902 9.02662 16.1274 8.81046 16.1496C8.59461 16.1717 8.33691 16.1892 8.0371 16.2026C7.73753 16.2155 7.50381 16.2223 7.33641 16.2223C7.16891 16.2223 6.95733 16.2199 6.7017 16.2155C6.44594 16.2114 6.28303 16.2092 6.21245 16.2092V11.7402C6.28289 11.7402 6.49225 11.7359 6.84049 11.7269C7.18878 11.718 7.47288 11.7139 7.69326 11.7139C7.9136 11.7139 8.2178 11.7269 8.60577 11.7535C8.99338 11.7798 9.31953 11.8193 9.58418 11.8722C9.84851 11.9252 10.137 12.0066 10.4501 12.1169C10.7629 12.227 11.0165 12.3614 11.2104 12.52C11.4044 12.679 11.5673 12.8814 11.6995 13.1283C11.832 13.375 11.8981 13.6571 11.8981 13.9745C11.898 14.2215 11.8562 14.446 11.7724 14.6488Z" fill="#EE6855"/>
</svg>
