<svg width="22" height="22" viewBox="0 0 22 22" fill="none" xmlns="http://www.w3.org/2000/svg">
<path d="M18.375 14.103C19.0238 12.5613 19.1732 10.855 18.8021 9.22402C18.4309 7.59303 17.558 6.11938 16.3059 5.01024C15.0538 3.9011 13.4857 3.21225 11.8218 3.04055C10.158 2.86884 8.48216 3.22292 7.02998 4.05299L6.03798 2.31599C7.55561 1.4486 9.27417 0.994353 11.0222 0.998564C12.7702 1.00278 14.4865 1.4653 16 2.33999C20.49 4.93199 22.21 10.482 20.117 15.11L21.459 15.884L17.294 18.098L17.129 13.384L18.375 14.103V14.103ZM3.62498 7.89699C2.97612 9.43868 2.82676 11.145 3.1979 12.776C3.56903 14.4069 4.44199 15.8806 5.69405 16.9897C6.94611 18.0989 8.5143 18.7877 10.1781 18.9594C11.842 19.1311 13.5178 18.7771 14.97 17.947L15.962 19.684C14.4443 20.5514 12.7258 21.0056 10.9778 21.0014C9.22976 20.9972 7.51341 20.5347 5.99998 19.66C1.50998 17.068 -0.210022 11.518 1.88298 6.88999L0.539978 6.11699L4.70498 3.90299L4.86998 8.61699L3.62398 7.89799L3.62498 7.89699ZM12.415 13.828L9.58398 11L6.75598 13.828L5.34198 12.414L9.58498 8.17199L12.414 11L15.243 8.17199L16.657 9.58599L12.414 13.828H12.415Z" fill="#B9C1D9"/>
</svg>
