<svg width="24" height="24" viewBox="0 0 24 24" fill="none" xmlns="http://www.w3.org/2000/svg">
<g clip-path="url(#clip0_3_588)">
<path d="M11.9009 15.5958C11.9553 15.6216 12.0184 15.6216 12.0727 15.5958L17.9858 12.7828C18.1628 12.6987 18.3426 12.8927 18.2453 13.0628L12.1604 23.6966C12.0836 23.8309 11.89 23.8309 11.8132 23.6966L5.72812 13.0628C5.63081 12.8927 5.8107 12.6986 5.98763 12.7828L11.9009 15.5958Z" fill="#35378D"/>
<path d="M6.70475 9.90418C6.5276 9.98796 6.34814 9.79341 6.44592 9.62359L11.8135 0.301038C11.8904 0.167428 12.0832 0.16743 12.1601 0.30104L17.5336 9.63415C17.6315 9.80408 17.4518 9.99868 17.2746 9.91464L12.0724 7.44685C12.0182 7.42115 11.9554 7.42111 11.9012 7.44675L6.70475 9.90418Z" fill="#35378D"/>
<path d="M16.9635 11.3286C17.1159 11.4009 17.1158 11.6178 16.9634 11.6901L12.0724 14.0067C12.0182 14.0324 11.9554 14.0324 11.9012 14.0067L7.00193 11.6862C6.84936 11.6139 6.84943 11.3968 7.00205 11.3246L11.9012 9.00808C11.9554 8.98245 12.0182 8.98249 12.0724 9.00819L16.9635 11.3286Z" fill="#35378D"/>
</g>
<defs>
<clipPath id="clip0_3_588">
<rect width="24" height="24" fill="white" transform="matrix(-1 0 0 1 24 0)"/>
</clipPath>
</defs>
</svg>
