<svg width="13" height="22" viewBox="0 0 13 22" fill="none" xmlns="http://www.w3.org/2000/svg">
<path d="M5.43747 15.2313H12.8789V18.917H8.29698C8.37154 19.9716 8.41255 20.9491 8.48712 22H4.63219V18.9537H0.0502615C0.0502615 17.7485 -0.102594 16.5469 0.124825 15.4187C0.240398 14.8161 0.926382 14.2906 1.34767 13.7652C2.79792 12.0712 4.24818 10.4176 5.73573 8.72357C6.30986 8.08418 6.88027 7.48154 7.52898 6.76866H0.393254V3.08301H4.62846V0H8.33053V3.00952H12.9497C12.9497 4.25155 13.1026 5.45315 12.8752 6.58493C12.7596 7.18757 12.0736 7.71304 11.6151 8.23852C10.1648 9.93252 8.71454 11.5861 7.22699 13.2801C6.66031 13.9526 6.0899 14.5515 5.43747 15.2313Z" fill="black"/>
</svg>
